<?xml version="1.0" standalone="no"?>
<!DOCTYPE svg PUBLIC "-//W3C//DTD SVG 20010904//EN"
 "http://www.w3.org/TR/2001/REC-SVG-20010904/DTD/svg10.dtd">
<svg version="1.0" xmlns="http://www.w3.org/2000/svg"
 width="512.000000pt" height="512.000000pt" viewBox="0 0 512.000000 512.000000"
 preserveAspectRatio="xMidYMid meet">

<g transform="translate(0.000000,512.000000) scale(0.100000,-0.100000)"
fill="#000000" stroke="none">
<path d="M2325 5110 c-610 -62 -1149 -315 -1574 -741 -332 -332 -557 -727
-671 -1179 -346 -1375 481 -2766 1850 -3110 1054 -265 2155 156 2757 1055 576
860 576 1991 0 2850 -412 614 -1067 1018 -1807 1115 -115 15 -444 21 -555 10z
m547 -410 c240 -35 423 -92 643 -200 746 -365 1205 -1104 1205 -1940 0 -355
-66 -641 -220 -955 -277 -566 -786 -981 -1400 -1141 -329 -86 -751 -86 -1080
0 -618 161 -1121 571 -1400 1141 -154 314 -220 600 -220 955 0 355 66 641 220
955 313 641 910 1077 1620 1185 168 26 459 26 632 0z"/>
<path d="M1793 3529 c-172 -66 -240 -289 -134 -444 99 -146 307 -171 446 -52
84 71 118 217 75 329 -26 70 -106 148 -176 172 -63 21 -147 19 -211 -5z"/>
<path d="M3169 3537 c-130 -48 -201 -149 -202 -282 -1 -87 27 -155 86 -213
146 -143 389 -100 478 85 68 140 4 321 -138 393 -58 29 -168 38 -224 17z"/>
<path d="M1512 2211 c-81 -52 -90 -127 -29 -249 60 -119 114 -191 222 -297
163 -160 343 -258 579 -313 143 -33 381 -37 516 -9 379 81 679 304 839 624 46
93 52 140 21 190 -41 68 -118 90 -188 54 -34 -17 -48 -34 -76 -89 -40 -79
-137 -212 -192 -263 -117 -108 -274 -189 -439 -226 -93 -21 -315 -21 -411 0
-287 64 -499 230 -633 494 -36 73 -64 95 -129 100 -35 3 -55 -1 -80 -16z"/>
</g>
</svg>
